# xmcd CD database file
#
# Track frame offsets:
#	190
#	24170
#	42287
#	60392
#	77437
#	101300
#	120257
#	138730
#	155275
#	174127
#	195135
#	210512
#
# Disc length: 3008 seconds
#
# Revision: 2
# Processed by: cddbd v1.5.2PL0 Copyright (c) Steve Scherf et al.
# Submitted via: CDex 1.79
#
DISCID=7d0bbe0c
DTITLE=Tom Russell - Box Of Visions
DYEAR=1993
DGENRE=Country
TTITLE0=Angel of Lyon
TTITLE1=Annette
TTITLE2=Heart Of Hearts
TTITLE3=Purgatory Road
TTITLE4=Manzanar
TTITLE5=Waterloo
TTITLE6=Coney Island Moon
TTITLE7=Hong Kong Boy
TTITLE8=Wedding Dress Mary
TTITLE9=Blood Oranges
TTITLE10=The Extra Mile
TTITLE11=Box Of Visions
EXTD=YEAR: 1993
EXTT0=
EXTT1=
EXTT2=
EXTT3=
EXTT4=
EXTT5=
EXTT6=
EXTT7=
EXTT8=
EXTT9=
EXTT10=
EXTT11=
PLAYORDER=
